<svg id="Capa_1" enable-background="new 0 0 512 512" height="512" viewBox="0 0 512 512" width="512" xmlns="http://www.w3.org/2000/svg" xmlns:xlink="http://www.w3.org/1999/xlink"><radialGradient id="SVGID_1_" cx="261.437" cy="511.18" gradientTransform="matrix(.707 -.707 .981 .981 -424.921 194.551)" gradientUnits="userSpaceOnUse" r="29.491"><stop offset="0" stop-color="#90d8f9"/><stop offset=".1031" stop-color="#86cef6"/><stop offset=".5543" stop-color="#5ea5ec"/><stop offset=".74" stop-color="#5595cf"/><stop offset="1" stop-color="#4a80aa"/></radialGradient><linearGradient id="lg1"><stop offset="0" stop-color="#f6e266"/><stop offset=".3819" stop-color="#f2d53b"/><stop offset=".448" stop-color="#f1d333"/><stop offset=".8691" stop-color="#e7a627"/><stop offset=".9864" stop-color="#e49824"/></linearGradient><radialGradient id="SVGID_2_" cx="369.542" cy="271.552" gradientTransform="matrix(1 0 0 2.261 0 -342.407)" gradientUnits="userSpaceOnUse" r="188.473" xlink:href="#lg1"/><linearGradient id="lg2"><stop offset=".00000001598" stop-color="#90d8f9"/><stop offset=".3919" stop-color="#6bbef6"/><stop offset=".4934" stop-color="#65b3e8"/><stop offset=".6866" stop-color="#5495c2"/><stop offset=".8925" stop-color="#407093"/></linearGradient><radialGradient id="SVGID_3_" cx="370.087" cy="262.96" gradientTransform="matrix(1 0 0 2.261 0 -331.573)" gradientUnits="userSpaceOnUse" r="183.804" xlink:href="#lg2"/><linearGradient id="lg3"><stop offset=".0544" stop-color="#e4989d"/><stop offset=".5398" stop-color="#da4a54"/><stop offset=".8375" stop-color="#bc393d"/><stop offset=".9823" stop-color="#ac3030"/></linearGradient><radialGradient id="SVGID_4_" cx="369.321" cy="262.96" gradientTransform="matrix(1 0 0 2.261 0 -331.573)" gradientUnits="userSpaceOnUse" r="183.747" xlink:href="#lg3"/><radialGradient id="SVGID_5_" cx="172.798" cy="151.504" gradientTransform="matrix(1 0 0 1.268 0 -40.667)" gradientUnits="userSpaceOnUse" r="234.863"><stop offset=".0132" stop-color="#fffbe4"/><stop offset=".6064" stop-color="#f9efaf"/><stop offset=".6965" stop-color="#f9eeab"/><stop offset=".79" stop-color="#f8ec9e"/><stop offset=".8852" stop-color="#f7e88a"/><stop offset=".981" stop-color="#f6e36d"/><stop offset="1" stop-color="#f6e266"/></radialGradient><radialGradient id="SVGID_6_" cx="172.804" cy="140.884" gradientTransform="matrix(1 0 0 1.268 0 -37.816)" gradientUnits="userSpaceOnUse" r="241.779"><stop offset=".0132" stop-color="#ecf4ff"/><stop offset=".1054" stop-color="#e5f3fe"/><stop offset=".3496" stop-color="#d8f0fc"/><stop offset=".5693" stop-color="#d3effb"/><stop offset=".5856" stop-color="#d0eefb"/><stop offset=".8616" stop-color="#a2defa"/><stop offset="1" stop-color="#90d8f9"/></radialGradient><radialGradient id="SVGID_7_" cx="172.798" cy="151.504" gradientTransform="matrix(1 0 0 1.268 0 -40.667)" gradientUnits="userSpaceOnUse" r="234.863"><stop offset=".0132" stop-color="#fbe2dd"/><stop offset=".6064" stop-color="#eab1b7"/><stop offset=".717" stop-color="#e9adb3"/><stop offset=".8319" stop-color="#e7a0a6"/><stop offset=".9484" stop-color="#e48c92"/><stop offset="1" stop-color="#e28086"/></radialGradient><radialGradient id="SVGID_8_" cx="307.513" cy="261.567" gradientTransform="matrix(1 0 0 2.261 0 -329.816)" gradientUnits="userSpaceOnUse" r="183.524" xlink:href="#lg1"/><radialGradient id="SVGID_9_" cx="307.513" cy="261.567" gradientTransform="matrix(1 0 0 2.261 0 -329.816)" gradientUnits="userSpaceOnUse" r="183.524" xlink:href="#lg2"/><radialGradient id="SVGID_10_" cx="307.513" cy="261.567" gradientTransform="matrix(1 0 0 2.261 0 -329.816)" gradientUnits="userSpaceOnUse" r="183.524" xlink:href="#lg3"/><radialGradient id="SVGID_11_" cx="353.578" cy="1510.263" gradientTransform="matrix(.931 0 0 .112 -75.044 326.692)" gradientUnits="userSpaceOnUse" r="140.753"><stop offset="0" stop-color="#90d8f9"/><stop offset=".0194" stop-color="#94d9f9"/><stop offset=".3415" stop-color="#cdeefd"/><stop offset=".4962" stop-color="#e4f6ff"/><stop offset=".888" stop-color="#fff"/></radialGradient><g><path d="m249.371 466.528 7.337 19.353c.657 1.732 1.511 3.349 2.531 4.829 2.204 3.197 5.724 4.694 9.199 4.55l24.318.001s2.589-94.652 6.318-201.197l-75.069 82.744c6.023 30.487 14.304 60.542 25.366 89.72z" fill="url(#SVGID_1_)"/><path d="m294.621 15.041c-5.191-10.027-14.958-15.041-24.724-15.041l-12.861 214.436 78.727-84.996c-8.855-39.593-22.356-78.115-41.142-114.399z" fill="url(#SVGID_2_)"/><path d="m269.897 474.636c2.032 0 4.064.958 5.318 2.875l8.391 12.82c4.175 6.379 13.571 6.656 17.898.38 1.02-1.48 1.874-3.097 2.531-4.829l7.336-19.353c23.959-63.199 36.237-130.225 36.237-197.813v-36.084c0-10.52-1.183-20.93-1.88-31.391l-89.728 75.83z" fill="url(#SVGID_3_)"/><path d="m257.551 207.651-1.551 26.087 3.121 54.109 86.607-86.607c-1.614-24.208-4.69-48.209-9.966-71.8z" fill="url(#SVGID_4_)"/><path d="m269.897 0h-32.895c-9.766 0-19.533 5.014-24.724 15.041-34.816 67.246-52.987 141.865-52.987 217.59v36.088c0 11.896.857 23.735 1.614 35.579l96.131-89.862c4.334-109.728 8.486-214.436 12.861-214.436z" fill="url(#SVGID_5_)"/><path d="m195.527 466.528 7.337 19.353c.657 1.732 1.511 3.349 2.531 4.829 2.204 3.197 5.724 4.694 9.199 4.55l31.994.001s2.784-100.868 6.513-207.413l-82.939 88.961c6.022 30.486 14.303 60.541 25.365 89.719z" fill="url(#SVGID_6_)"/><path d="m160.905 304.297c1.559 24.378 4.53 48.586 9.256 72.51l82.744-82.744c.98-27.997 2.041-56.781 3.153-84.919z" fill="url(#SVGID_7_)"/><path d="m269.897 0c-9.766 0-19.533 5.014-24.724 15.041-34.816 67.246-52.987 141.865-52.987 217.59v36.088c0 1.375.176 2.737.187 4.112l48.41-35.639 29.115-41.886v-195.306z" fill="url(#SVGID_8_)"/><path d="m228.422 466.528 7.337 19.353c.657 1.732 1.511 3.349 2.531 4.829 4.327 6.277 13.723 5.999 17.898-.38l8.391-12.82c1.255-1.917 3.287-2.875 5.318-2.875v-197.564l-29.115 16.992-42.304 54.428c5.817 40.234 15.476 79.875 29.944 118.037z" fill="url(#SVGID_9_)"/><path d="m192.372 272.83c.188 25.39 2.485 50.621 6.105 75.661l71.42-71.42v-81.766z" fill="url(#SVGID_10_)"/><path d="m256 512c75.42 0 136.561-7.491 136.561-16.731h-273.122c0 9.24 61.141 16.731 136.561 16.731z" fill="url(#SVGID_11_)"/></g></svg>